<?xml version="1.0" standalone="no"?>
<!DOCTYPE svg PUBLIC "-//W3C//DTD SVG 20010904//EN"
 "http://www.w3.org/TR/2001/REC-SVG-20010904/DTD/svg10.dtd">
<svg version="1.0" xmlns="http://www.w3.org/2000/svg"
 width="400.000000pt" height="400.000000pt" viewBox="0 0 400.000000 400.000000"
 preserveAspectRatio="xMidYMid meet">

<g transform="translate(0.000000,400.000000) scale(0.100000,-0.100000)"
fill="#000000" stroke="none">
<path d="M1845 3099 c-115 -198 -225 -388 -243 -422 -106 -200 -67 -446 97
-607 55 -54 158 -120 187 -120 4 0 -11 16 -34 35 -24 22 -54 63 -74 102 -27
56 -32 77 -32 137 0 123 69 232 182 288 68 34 197 33 266 -1 66 -33 122 -91
155 -160 21 -46 26 -70 25 -131 -1 -93 -27 -154 -96 -223 -56 -56 -39 -56 54
-1 158 96 258 290 244 474 -7 100 -34 172 -109 299 -35 58 -139 238 -232 399
-93 160 -172 292 -175 292 -3 0 -99 -162 -215 -361z m243 -366 c-16 -2 -40 -2
-55 0 -16 2 -3 4 27 4 30 0 43 -2 28 -4z m223 -80 c13 -16 12 -17 -3 -4 -17
13 -22 21 -14 21 2 0 10 -8 17 -17z m-551 -57 c0 -2 -8 -10 -17 -17 -16 -13
-17 -12 -4 4 13 16 21 21 21 13z m631 -23 c13 -16 12 -17 -3 -4 -10 7 -18 15
-18 17 0 8 8 3 21 -13z m76 -270 c-2 -16 -4 -3 -4 27 0 30 2 43 4 28 2 -16 2
-40 0 -55z m-810 0 c-2 -16 -4 -5 -4 22 0 28 2 40 4 28 2 -13 2 -35 0 -50z
m800 -75 c-3 -8 -6 -5 -6 6 -1 11 2 17 5 13 3 -3 4 -12 1 -19z m-753 -84 c3
-8 2 -12 -4 -9 -6 3 -10 10 -10 16 0 14 7 11 14 -7z m37 -61 c13 -16 12 -17
-3 -4 -17 13 -22 21 -14 21 2 0 10 -8 17 -17z m629 -26 c0 -2 -10 -12 -22 -23
l-23 -19 19 23 c18 21 26 27 26 19z"/>
<path d="M543 1500 c-41 -25 -66 -74 -65 -128 1 -88 58 -132 173 -132 85 0
135 -13 149 -40 17 -32 11 -70 -15 -95 -24 -24 -28 -25 -182 -25 l-157 0 39
-41 40 -41 132 4 c114 3 135 6 159 24 70 52 92 130 56 201 -33 63 -61 76 -181
83 -92 5 -106 8 -122 29 -24 30 -24 56 1 81 18 18 33 20 155 20 l136 0 -32 40
-32 40 -111 0 c-92 0 -116 -3 -143 -20z"/>
<path d="M1166 1505 c-99 -35 -168 -134 -169 -241 -2 -233 277 -348 442 -182
50 49 71 102 71 179 0 181 -174 305 -344 244z m174 -85 c103 -53 126 -186 47
-277 -57 -65 -135 -80 -214 -42 -132 64 -132 258 -1 322 46 23 120 21 168 -3z"/>
<path d="M1655 1480 c38 -39 40 -40 111 -40 66 0 74 -2 93 -26 28 -35 26 -69
-4 -99 -23 -23 -31 -25 -130 -25 l-105 0 0 -145 0 -145 40 0 40 0 0 105 0 105
68 0 c107 0 170 46 186 136 9 47 -26 120 -73 151 -30 21 -46 23 -150 23 l-115
0 39 -40z"/>
<path d="M2060 1262 l0 -262 40 0 40 0 0 120 0 120 87 0 87 0 -34 35 c-30 31
-39 35 -87 35 l-53 0 0 68 c0 66 -1 69 -40 107 l-40 39 0 -262z"/>
<path d="M2400 1297 l0 -223 33 -32 c18 -18 36 -32 40 -32 4 0 7 115 7 255 l0
255 -40 0 -40 0 0 -223z"/>
<path d="M2755 1507 c-118 -46 -183 -146 -172 -267 6 -69 34 -127 83 -170 53
-46 99 -63 174 -64 144 -1 254 110 253 254 0 75 -17 121 -64 175 -65 73 -187
105 -274 72z m161 -86 c97 -44 131 -164 73 -258 -70 -113 -254 -102 -310 20
-70 156 81 309 237 238z"/>
<path d="M3540 1353 l0 -168 -163 163 c-89 89 -166 162 -170 162 -4 0 -7 -19
-7 -43 0 -42 2 -45 210 -252 l210 -210 0 258 0 257 -40 0 -40 0 0 -167z"/>
<path d="M3202 1160 l3 -155 38 -3 37 -3 0 118 0 119 -40 39 -41 40 3 -155z"/>
</g>
</svg>
